<svg xmlns="http://www.w3.org/2000/svg" xmlns:xlink="http://www.w3.org/1999/xlink" width="500" zoomAndPan="magnify" viewBox="0 0 375 374.999991" height="500" preserveAspectRatio="xMidYMid meet" version="1.0"><defs><g/><clipPath id="b1cb82e68b"><rect x="0" width="256" y="0" height="60"/></clipPath><clipPath id="d3e57432c3"><path d="M 173 178 L 199 178 L 199 197 L 173 197 Z M 173 178 " clip-rule="nonzero"/></clipPath><clipPath id="f6a98c94be"><path d="M 192.894531 212.273438 L 167.96875 187.347656 L 192.894531 162.421875 L 217.820312 187.347656 Z M 192.894531 212.273438 " clip-rule="nonzero"/></clipPath><clipPath id="9ceb1f5f66"><path d="M 192.894531 212.273438 L 167.96875 187.347656 L 192.894531 162.421875 L 217.820312 187.347656 Z M 192.894531 212.273438 " clip-rule="nonzero"/></clipPath><clipPath id="81dfbdece3"><path d="M 187 178 L 213 178 L 213 197 L 187 197 Z M 187 178 " clip-rule="nonzero"/></clipPath><clipPath id="092a962e8e"><path d="M 192.894531 212.273438 L 167.96875 187.347656 L 192.894531 162.421875 L 217.820312 187.347656 Z M 192.894531 212.273438 " clip-rule="nonzero"/></clipPath><clipPath id="76ab6326e1"><path d="M 192.894531 212.273438 L 167.96875 187.347656 L 192.894531 162.421875 L 217.820312 187.347656 Z M 192.894531 212.273438 " clip-rule="nonzero"/></clipPath></defs><g transform="matrix(1, 0, 0, 1, 62, 156)"><g clip-path="url(#b1cb82e68b)"><g fill="#ffffff" fill-opacity="1"><g transform="translate(0.598053, 47.052295)"><g><path d="M 5.46875 0 C 5.101562 0 4.820312 -0.101562 4.625 -0.3125 C 4.425781 -0.53125 4.328125 -0.804688 4.328125 -1.140625 L 4.328125 -33.6875 C 4.328125 -34.019531 4.425781 -34.289062 4.625 -34.5 C 4.820312 -34.71875 5.101562 -34.828125 5.46875 -34.828125 L 8.109375 -34.828125 C 8.472656 -34.828125 8.753906 -34.71875 8.953125 -34.5 C 9.148438 -34.289062 9.25 -34.019531 9.25 -33.6875 L 9.25 -1.140625 C 9.25 -0.804688 9.148438 -0.53125 8.953125 -0.3125 C 8.753906 -0.101562 8.472656 0 8.109375 0 Z M 5.46875 0 "/></g></g></g><g fill="#ffffff" fill-opacity="1"><g transform="translate(14.184587, 47.052295)"><g><path d="M 4.828125 0 C 4.492188 0 4.21875 -0.101562 4 -0.3125 C 3.789062 -0.53125 3.6875 -0.804688 3.6875 -1.140625 L 3.6875 -24.734375 C 3.6875 -25.066406 3.789062 -25.335938 4 -25.546875 C 4.21875 -25.765625 4.492188 -25.875 4.828125 -25.875 L 7.171875 -25.875 C 7.492188 -25.875 7.765625 -25.765625 7.984375 -25.546875 C 8.203125 -25.335938 8.3125 -25.066406 8.3125 -24.734375 L 8.3125 -22.546875 C 9.175781 -23.671875 10.257812 -24.585938 11.5625 -25.296875 C 12.875 -26.015625 14.5625 -26.375 16.625 -26.375 C 18.78125 -26.375 20.613281 -25.898438 22.125 -24.953125 C 23.632812 -24.015625 24.773438 -22.707031 25.546875 -21.03125 C 26.328125 -19.351562 26.71875 -17.398438 26.71875 -15.171875 L 26.71875 -1.140625 C 26.71875 -0.804688 26.609375 -0.53125 26.390625 -0.3125 C 26.179688 -0.101562 25.910156 0 25.578125 0 L 23.09375 0 C 22.757812 0 22.484375 -0.101562 22.265625 -0.3125 C 22.054688 -0.53125 21.953125 -0.804688 21.953125 -1.140625 L 21.953125 -14.921875 C 21.953125 -17.242188 21.382812 -19.0625 20.25 -20.375 C 19.125 -21.6875 17.46875 -22.34375 15.28125 -22.34375 C 13.21875 -22.34375 11.5625 -21.6875 10.3125 -20.375 C 9.070312 -19.0625 8.453125 -17.242188 8.453125 -14.921875 L 8.453125 -1.140625 C 8.453125 -0.804688 8.34375 -0.53125 8.125 -0.3125 C 7.914062 -0.101562 7.644531 0 7.3125 0 Z M 4.828125 0 "/></g></g></g><g fill="#ffffff" fill-opacity="1"><g transform="translate(44.343672, 47.052295)"><g><path d="M 7.421875 0 C 7.085938 0 6.8125 -0.101562 6.59375 -0.3125 C 6.375 -0.53125 6.265625 -0.804688 6.265625 -1.140625 L 6.265625 -21.890625 L 2.046875 -21.890625 C 1.710938 -21.890625 1.4375 -22 1.21875 -22.21875 C 1 -22.4375 0.890625 -22.710938 0.890625 -23.046875 L 0.890625 -24.734375 C 0.890625 -25.066406 1 -25.335938 1.21875 -25.546875 C 1.4375 -25.765625 1.710938 -25.875 2.046875 -25.875 L 6.265625 -25.875 L 6.265625 -28.359375 C 6.265625 -30.054688 6.546875 -31.539062 7.109375 -32.8125 C 7.679688 -34.09375 8.585938 -35.082031 9.828125 -35.78125 C 11.066406 -36.476562 12.734375 -36.828125 14.828125 -36.828125 L 17.8125 -36.828125 C 18.144531 -36.828125 18.414062 -36.71875 18.625 -36.5 C 18.84375 -36.28125 18.953125 -36.007812 18.953125 -35.6875 L 18.953125 -33.984375 C 18.953125 -33.660156 18.84375 -33.390625 18.625 -33.171875 C 18.414062 -32.953125 18.144531 -32.84375 17.8125 -32.84375 L 14.921875 -32.84375 C 13.367188 -32.84375 12.3125 -32.4375 11.75 -31.625 C 11.1875 -30.8125 10.90625 -29.644531 10.90625 -28.125 L 10.90625 -25.875 L 17.3125 -25.875 C 17.644531 -25.875 17.921875 -25.765625 18.140625 -25.546875 C 18.359375 -25.335938 18.46875 -25.066406 18.46875 -24.734375 L 18.46875 -23.046875 C 18.46875 -22.710938 18.359375 -22.4375 18.140625 -22.21875 C 17.921875 -22 17.644531 -21.890625 17.3125 -21.890625 L 10.90625 -21.890625 L 10.90625 -1.140625 C 10.90625 -0.804688 10.796875 -0.53125 10.578125 -0.3125 C 10.359375 -0.101562 10.082031 0 9.75 0 Z M 7.421875 0 "/></g></g></g><g fill="#ffffff" fill-opacity="1"><g transform="translate(63.504177, 47.052295)"><g><path d="M 4.875 0 C 4.539062 0 4.265625 -0.101562 4.046875 -0.3125 C 3.835938 -0.53125 3.734375 -0.804688 3.734375 -1.140625 L 3.734375 -34.1875 C 3.734375 -34.519531 3.835938 -34.789062 4.046875 -35 C 4.265625 -35.21875 4.539062 -35.328125 4.875 -35.328125 L 7.21875 -35.328125 C 7.582031 -35.328125 7.863281 -35.21875 8.0625 -35 C 8.257812 -34.789062 8.359375 -34.519531 8.359375 -34.1875 L 8.359375 -1.140625 C 8.359375 -0.804688 8.257812 -0.53125 8.0625 -0.3125 C 7.863281 -0.101562 7.582031 0 7.21875 0 Z M 4.875 0 "/></g></g></g><g fill="#ffffff" fill-opacity="1"><g transform="translate(75.597655, 47.052295)"><g><path d="M 13.34375 0.5 C 11.21875 0.5 9.414062 0.0234375 7.9375 -0.921875 C 6.457031 -1.867188 5.335938 -3.1875 4.578125 -4.875 C 3.816406 -6.570312 3.4375 -8.515625 3.4375 -10.703125 L 3.4375 -24.734375 C 3.4375 -25.066406 3.539062 -25.335938 3.75 -25.546875 C 3.96875 -25.765625 4.242188 -25.875 4.578125 -25.875 L 7.0625 -25.875 C 7.394531 -25.875 7.671875 -25.765625 7.890625 -25.546875 C 8.109375 -25.335938 8.21875 -25.066406 8.21875 -24.734375 L 8.21875 -10.953125 C 8.21875 -6.003906 10.375 -3.53125 14.6875 -3.53125 C 16.738281 -3.53125 18.382812 -4.1875 19.625 -5.5 C 20.875 -6.8125 21.5 -8.628906 21.5 -10.953125 L 21.5 -24.734375 C 21.5 -25.066406 21.601562 -25.335938 21.8125 -25.546875 C 22.03125 -25.765625 22.304688 -25.875 22.640625 -25.875 L 25.125 -25.875 C 25.457031 -25.875 25.722656 -25.765625 25.921875 -25.546875 C 26.117188 -25.335938 26.21875 -25.066406 26.21875 -24.734375 L 26.21875 -1.140625 C 26.21875 -0.804688 26.117188 -0.53125 25.921875 -0.3125 C 25.722656 -0.101562 25.457031 0 25.125 0 L 22.796875 0 C 22.460938 0 22.1875 -0.101562 21.96875 -0.3125 C 21.75 -0.53125 21.640625 -0.804688 21.640625 -1.140625 L 21.640625 -3.328125 C 20.742188 -2.171875 19.65625 -1.242188 18.375 -0.546875 C 17.101562 0.148438 15.425781 0.5 13.34375 0.5 Z M 13.34375 0.5 "/></g></g></g><g fill="#ffffff" fill-opacity="1"><g transform="translate(105.576148, 47.052295)"><g/></g></g><g fill="#ffffff" fill-opacity="1"><g transform="translate(117.7692, 47.052295)"><g/></g></g><g fill="#ffffff" fill-opacity="1"><g transform="translate(129.962253, 47.052295)"><g/></g></g><g fill="#ffffff" fill-opacity="1"><g transform="translate(142.155306, 47.052295)"><g/></g></g><g fill="#ffffff" fill-opacity="1"><g transform="translate(154.371521, 47.052295)"><g><path d="M 5.46875 0 C 5.101562 0 4.820312 -0.101562 4.625 -0.3125 C 4.425781 -0.53125 4.328125 -0.804688 4.328125 -1.140625 L 4.328125 -33.6875 C 4.328125 -34.019531 4.425781 -34.289062 4.625 -34.5 C 4.820312 -34.71875 5.101562 -34.828125 5.46875 -34.828125 L 8.109375 -34.828125 C 8.441406 -34.828125 8.710938 -34.71875 8.921875 -34.5 C 9.140625 -34.289062 9.25 -34.019531 9.25 -33.6875 L 9.25 -4.328125 L 25.78125 -4.328125 C 26.144531 -4.328125 26.429688 -4.21875 26.640625 -4 C 26.859375 -3.789062 26.96875 -3.503906 26.96875 -3.140625 L 26.96875 -1.140625 C 26.96875 -0.804688 26.859375 -0.53125 26.640625 -0.3125 C 26.429688 -0.101562 26.144531 0 25.78125 0 Z M 5.46875 0 "/></g></g></g><g fill="#ffffff" fill-opacity="1"><g transform="translate(182.390597, 47.052295)"><g><path d="M 4.828125 0 C 4.492188 0 4.21875 -0.101562 4 -0.3125 C 3.789062 -0.53125 3.6875 -0.804688 3.6875 -1.140625 L 3.6875 -24.734375 C 3.6875 -25.066406 3.789062 -25.335938 4 -25.546875 C 4.21875 -25.765625 4.492188 -25.875 4.828125 -25.875 L 7.21875 -25.875 C 7.550781 -25.875 7.820312 -25.765625 8.03125 -25.546875 C 8.25 -25.335938 8.359375 -25.066406 8.359375 -24.734375 L 8.359375 -1.140625 C 8.359375 -0.804688 8.25 -0.53125 8.03125 -0.3125 C 7.820312 -0.101562 7.550781 0 7.21875 0 Z M 4.421875 -30.703125 C 4.097656 -30.703125 3.828125 -30.8125 3.609375 -31.03125 C 3.390625 -31.25 3.28125 -31.519531 3.28125 -31.84375 L 3.28125 -34.53125 C 3.28125 -34.863281 3.390625 -35.144531 3.609375 -35.375 C 3.828125 -35.613281 4.097656 -35.734375 4.421875 -35.734375 L 7.5625 -35.734375 C 7.894531 -35.734375 8.175781 -35.613281 8.40625 -35.375 C 8.644531 -35.144531 8.765625 -34.863281 8.765625 -34.53125 L 8.765625 -31.84375 C 8.765625 -31.519531 8.644531 -31.25 8.40625 -31.03125 C 8.175781 -30.8125 7.894531 -30.703125 7.5625 -30.703125 Z M 4.421875 -30.703125 "/></g></g></g><g fill="#ffffff" fill-opacity="1"><g transform="translate(194.434335, 47.052295)"><g><path d="M 4.828125 0 C 4.492188 0 4.21875 -0.101562 4 -0.3125 C 3.789062 -0.53125 3.6875 -0.804688 3.6875 -1.140625 L 3.6875 -24.734375 C 3.6875 -25.066406 3.789062 -25.335938 4 -25.546875 C 4.21875 -25.765625 4.492188 -25.875 4.828125 -25.875 L 7.171875 -25.875 C 7.492188 -25.875 7.765625 -25.765625 7.984375 -25.546875 C 8.203125 -25.335938 8.3125 -25.066406 8.3125 -24.734375 L 8.3125 -22.546875 C 9.175781 -23.671875 10.257812 -24.585938 11.5625 -25.296875 C 12.875 -26.015625 14.5625 -26.375 16.625 -26.375 C 18.78125 -26.375 20.613281 -25.898438 22.125 -24.953125 C 23.632812 -24.015625 24.773438 -22.707031 25.546875 -21.03125 C 26.328125 -19.351562 26.71875 -17.398438 26.71875 -15.171875 L 26.71875 -1.140625 C 26.71875 -0.804688 26.609375 -0.53125 26.390625 -0.3125 C 26.179688 -0.101562 25.910156 0 25.578125 0 L 23.09375 0 C 22.757812 0 22.484375 -0.101562 22.265625 -0.3125 C 22.054688 -0.53125 21.953125 -0.804688 21.953125 -1.140625 L 21.953125 -14.921875 C 21.953125 -17.242188 21.382812 -19.0625 20.25 -20.375 C 19.125 -21.6875 17.46875 -22.34375 15.28125 -22.34375 C 13.21875 -22.34375 11.5625 -21.6875 10.3125 -20.375 C 9.070312 -19.0625 8.453125 -17.242188 8.453125 -14.921875 L 8.453125 -1.140625 C 8.453125 -0.804688 8.34375 -0.53125 8.125 -0.3125 C 7.914062 -0.101562 7.644531 0 7.3125 0 Z M 4.828125 0 "/></g></g></g><g fill="#ffffff" fill-opacity="1"><g transform="translate(224.59342, 47.052295)"><g><path d="M 4.875 0 C 4.539062 0 4.265625 -0.101562 4.046875 -0.3125 C 3.835938 -0.53125 3.734375 -0.804688 3.734375 -1.140625 L 3.734375 -34.1875 C 3.734375 -34.519531 3.835938 -34.789062 4.046875 -35 C 4.265625 -35.21875 4.539062 -35.328125 4.875 -35.328125 L 7.21875 -35.328125 C 7.550781 -35.328125 7.820312 -35.21875 8.03125 -35 C 8.25 -34.789062 8.359375 -34.519531 8.359375 -34.1875 L 8.359375 -16.875 L 18.171875 -25.03125 C 18.566406 -25.363281 18.867188 -25.585938 19.078125 -25.703125 C 19.296875 -25.816406 19.65625 -25.875 20.15625 -25.875 L 22.796875 -25.875 C 23.085938 -25.875 23.332031 -25.773438 23.53125 -25.578125 C 23.738281 -25.378906 23.84375 -25.128906 23.84375 -24.828125 C 23.84375 -24.703125 23.800781 -24.554688 23.71875 -24.390625 C 23.632812 -24.222656 23.472656 -24.054688 23.234375 -23.890625 L 11.75 -14.328125 L 24.484375 -1.9375 C 24.878906 -1.601562 25.078125 -1.304688 25.078125 -1.046875 C 25.078125 -0.742188 24.976562 -0.492188 24.78125 -0.296875 C 24.582031 -0.0976562 24.332031 0 24.03125 0 L 21.453125 0 C 20.953125 0 20.582031 -0.0546875 20.34375 -0.171875 C 20.113281 -0.285156 19.816406 -0.507812 19.453125 -0.84375 L 8.359375 -11.453125 L 8.359375 -1.140625 C 8.359375 -0.804688 8.25 -0.53125 8.03125 -0.3125 C 7.820312 -0.101562 7.550781 0 7.21875 0 Z M 4.875 0 "/></g></g></g></g></g><g clip-path="url(#d3e57432c3)"><g clip-path="url(#f6a98c94be)"><g clip-path="url(#9ceb1f5f66)"><path fill="#6ec5e9" d="M 173.019531 187.496094 C 173.019531 192.398438 176.992188 196.375 181.894531 196.375 L 188.898438 196.375 C 188.589844 196.128906 188.296875 195.859375 188.015625 195.578125 C 187.128906 194.691406 186.410156 193.691406 185.863281 192.601562 L 181.894531 192.601562 C 180.53125 192.601562 179.25 192.070312 178.285156 191.109375 C 177.320312 190.144531 176.789062 188.863281 176.792969 187.5 C 176.789062 186.136719 177.320312 184.855469 178.285156 183.890625 C 179.25 182.925781 180.53125 182.394531 181.894531 182.394531 L 189.660156 182.394531 C 191.023438 182.394531 192.304688 182.925781 193.269531 183.890625 C 194.234375 184.855469 194.765625 186.136719 194.765625 187.5 C 194.765625 188.164062 194.640625 188.804688 194.398438 189.402344 C 194.863281 189.820312 195.460938 190.050781 196.09375 190.050781 L 198.164062 190.050781 C 198.40625 189.242188 198.535156 188.386719 198.539062 187.5 C 198.539062 182.597656 194.5625 178.621094 189.660156 178.621094 L 181.894531 178.621094 C 176.992188 178.625 173.019531 182.597656 173.019531 187.496094 Z M 173.019531 187.496094 " fill-opacity="1" fill-rule="nonzero"/></g></g></g><g clip-path="url(#81dfbdece3)"><g clip-path="url(#092a962e8e)"><g clip-path="url(#76ab6326e1)"><path fill="#6ec5e9" d="M 197.699219 179.375 C 198.585938 180.265625 199.3125 181.277344 199.867188 182.394531 L 203.863281 182.394531 C 205.226562 182.394531 206.507812 182.925781 207.46875 183.890625 C 208.433594 184.855469 208.964844 186.132812 208.964844 187.5 C 208.964844 188.863281 208.433594 190.144531 207.46875 191.105469 C 206.507812 192.070312 205.226562 192.601562 203.859375 192.601562 L 196.09375 192.601562 C 194.730469 192.601562 193.453125 192.070312 192.488281 191.105469 C 191.523438 190.140625 190.992188 188.863281 190.992188 187.5 C 190.992188 186.835938 191.117188 186.191406 191.359375 185.59375 C 190.890625 185.171875 190.292969 184.941406 189.660156 184.941406 L 187.59375 184.945312 C 187.347656 185.753906 187.21875 186.613281 187.21875 187.5 C 187.21875 192.398438 191.191406 196.375 196.09375 196.375 L 203.863281 196.375 C 208.765625 196.375 212.738281 192.402344 212.738281 187.496094 C 212.738281 182.59375 208.765625 178.621094 203.863281 178.621094 L 196.871094 178.621094 C 197.15625 178.859375 197.433594 179.109375 197.699219 179.375 Z M 197.699219 179.375 " fill-opacity="1" fill-rule="nonzero"/></g></g></g></svg>